<svg width="300" height="200" viewBox="0 0 300 200" fill="none" xmlns="http://www.w3.org/2000/svg">
  <!-- Background -->
  <rect width="300" height="200" rx="10" fill="#f5f7ff"/>
  
  <!-- Application Document -->
  <rect x="70" y="40" width="100" height="120" rx="5" fill="white" stroke="#4f46e5" stroke-width="2"/>
  
  <!-- Document Header -->
  <rect x="70" y="40" width="100" height="20" rx="5" fill="#4f46e5"/>
  <text x="120" y="55" font-family="Arial" font-size="10" fill="white" text-anchor="middle">Application</text>
  
  <!-- Document Content -->
  <line x1="85" y1="75" x2="155" y2="75" stroke="#4f46e5" stroke-width="1" stroke-linecap="round"/>
  <line x1="85" y1="85" x2="155" y2="85" stroke="#4f46e5" stroke-width="1" stroke-linecap="round"/>
  <line x1="85" y1="95" x2="155" y2="95" stroke="#4f46e5" stroke-width="1" stroke-linecap="round"/>
  <line x1="85" y1="105" x2="155" y2="105" stroke="#4f46e5" stroke-width="1" stroke-linecap="round"/>
  <line x1="85" y1="115" x2="155" y2="115" stroke="#4f46e5" stroke-width="1" stroke-linecap="round"/>
  <line x1="85" y1="125" x2="155" y2="125" stroke="#4f46e5" stroke-width="1" stroke-linecap="round"/>
  <line x1="85" y1="135" x2="125" y2="135" stroke="#4f46e5" stroke-width="1" stroke-linecap="round"/>
  
  <!-- Checkmark -->
  <circle cx="200" cy="100" r="30" fill="#10b981"/>
  <path d="M185 100 L195 110 L215 90" stroke="white" stroke-width="4" stroke-linecap="round" stroke-linejoin="round"/>
  
  <!-- Trophy -->
  <path d="M150 170 L170 170 L170 150 L150 150 Z" fill="#fbbf24"/>
  <path d="M160 150 L160 140" stroke="#fbbf24" stroke-width="2"/>
  <path d="M150 140 L170 140" stroke="#fbbf24" stroke-width="2"/>
  <path d="M145 140 Q140 130, 145 120" stroke="#fbbf24" stroke-width="2" fill="none"/>
  <path d="M175 140 Q180 130, 175 120" stroke="#fbbf24" stroke-width="2" fill="none"/>
  
  <!-- Graduation Cap -->
  <path d="M230 150 L250 160 L230 170 L210 160 L230 150Z" fill="#4f46e5"/>
  <path d="M220 165 L220 175 L230 180 L240 175 L240 165" stroke="#4338ca" stroke-width="1" stroke-linecap="round" stroke-linejoin="round"/>
  <path d="M230 170 L230 180" stroke="#4338ca" stroke-width="1" stroke-linecap="round" stroke-linejoin="round"/>
  
  <!-- Decorative Elements -->
  <circle cx="30" cy="30" r="5" fill="#818cf8"/>
  <circle cx="270" cy="170" r="5" fill="#818cf8"/>
  <circle cx="30" cy="170" r="5" fill="#10b981"/>
  <circle cx="270" cy="30" r="5" fill="#10b981"/>
  
  <!-- Stars -->
  <path d="M50 60 L53 66 L60 66 L54 70 L56 76 L50 73 L44 76 L46 70 L40 66 L47 66 Z" fill="#818cf8"/>
  <path d="M250 60 L253 66 L260 66 L254 70 L256 76 L250 73 L244 76 L246 70 L240 66 L247 66 Z" fill="#818cf8"/>
</svg>