<svg width="600" height="500" viewBox="0 0 600 500" fill="none" xmlns="http://www.w3.org/2000/svg">
  <!-- Background Elements -->
  <circle cx="300" cy="250" r="200" fill="#f5f7ff" stroke="#e6e9ff" stroke-width="2"/>
  <circle cx="300" cy="250" r="150" fill="#f0f2ff" stroke="#e6e9ff" stroke-width="2"/>
  
  <!-- Circuit Pattern -->
  <path d="M150 250 L250 250" stroke="#d1d5f0" stroke-width="2" stroke-dasharray="5 5"/>
  <path d="M350 250 L450 250" stroke="#d1d5f0" stroke-width="2" stroke-dasharray="5 5"/>
  <path d="M300 100 L300 200" stroke="#d1d5f0" stroke-width="2" stroke-dasharray="5 5"/>
  <path d="M300 300 L300 400" stroke="#d1d5f0" stroke-width="2" stroke-dasharray="5 5"/>
  
  <circle cx="150" cy="250" r="5" fill="#4f46e5"/>
  <circle cx="250" cy="250" r="5" fill="#4f46e5"/>
  <circle cx="350" cy="250" r="5" fill="#4f46e5"/>
  <circle cx="450" cy="250" r="5" fill="#4f46e5"/>
  <circle cx="300" cy="100" r="5" fill="#4f46e5"/>
  <circle cx="300" cy="200" r="5" fill="#4f46e5"/>
  <circle cx="300" cy="300" r="5" fill="#4f46e5"/>
  <circle cx="300" cy="400" r="5" fill="#4f46e5"/>
  
  <!-- Graduation Cap -->
  <path d="M300 150 L400 200 L300 250 L200 200 L300 150Z" fill="#4f46e5"/>
  <path d="M250 220 L250 270 L300 290 L350 270 L350 220" stroke="#4338ca" stroke-width="3" stroke-linecap="round" stroke-linejoin="round"/>
  <path d="M300 250 L300 290" stroke="#4338ca" stroke-width="3" stroke-linecap="round" stroke-linejoin="round"/>
  <path d="M400 200 L400 250" stroke="#4338ca" stroke-width="3" stroke-linecap="round" stroke-linejoin="round"/>
  <circle cx="400" cy="250" r="10" fill="#4338ca"/>
  
  <!-- Document with Checkmark -->
  <rect x="200" y="300" width="80" height="100" rx="5" fill="white" stroke="#4f46e5" stroke-width="2"/>
  <line x1="220" y1="320" x2="260" y2="320" stroke="#4f46e5" stroke-width="2" stroke-linecap="round"/>
  <line x1="220" y1="340" x2="260" y2="340" stroke="#4f46e5" stroke-width="2" stroke-linecap="round"/>
  <line x1="220" y1="360" x2="240" y2="360" stroke="#4f46e5" stroke-width="2" stroke-linecap="round"/>
  
  <!-- AI Brain -->
  <circle cx="350" cy="350" r="40" fill="white" stroke="#4f46e5" stroke-width="2"/>
  <path d="M330 330 Q350 310, 370 330 Q390 350, 370 370 Q350 390, 330 370 Q310 350, 330 330Z" stroke="#4f46e5" stroke-width="2" fill="none"/>
  <path d="M350 310 L350 390" stroke="#4f46e5" stroke-width="2"/>
  <path d="M310 350 L390 350" stroke="#4f46e5" stroke-width="2"/>
  <circle cx="340" cy="340" r="3" fill="#4f46e5"/>
  <circle cx="360" cy="340" r="3" fill="#4f46e5"/>
  <circle cx="340" cy="360" r="3" fill="#4f46e5"/>
  <circle cx="360" cy="360" r="3" fill="#4f46e5"/>
  
  <!-- Magnifying Glass -->
  <circle cx="450" cy="180" r="25" fill="white" stroke="#4f46e5" stroke-width="3" stroke-linecap="round"/>
  <line x1="470" y1="200" x2="490" y2="220" stroke="#4f46e5" stroke-width="3" stroke-linecap="round"/>
  
  <!-- Dollar Sign -->
  <circle cx="180" cy="180" r="25" fill="white" stroke="#4f46e5" stroke-width="2"/>
  <path d="M180 165 L180 195" stroke="#4f46e5" stroke-width="3" stroke-linecap="round"/>
  <path d="M190 170 Q180 160, 170 170 Q160 180, 170 190 Q180 200, 190 190" stroke="#4f46e5" stroke-width="2" fill="none"/>
  
  <!-- Decorative Elements -->
  <circle cx="150" cy="150" r="5" fill="#10b981"/>
  <circle cx="450" cy="350" r="5" fill="#10b981"/>
  <circle cx="200" cy="400" r="5" fill="#10b981"/>
  <circle cx="400" cy="100" r="5" fill="#10b981"/>
  
  <!-- Stars -->
  <path d="M150 100 L155 110 L165 110 L157 117 L160 127 L150 122 L140 127 L143 117 L135 110 L145 110 Z" fill="#818cf8"/>
  <path d="M450 400 L455 410 L465 410 L457 417 L460 427 L450 422 L440 427 L443 417 L435 410 L445 410 Z" fill="#818cf8"/>
  <path d="M500 200 L503 206 L510 206 L504 210 L506 216 L500 213 L494 216 L496 210 L490 206 L497 206 Z" fill="#818cf8"/>
  <path d="M100 300 L103 306 L110 306 L104 310 L106 316 L100 313 L94 316 L96 310 L90 306 L97 306 Z" fill="#818cf8"/>
  
  <!-- Connection Lines -->
  <path d="M300 250 Q350 280, 350 350" stroke="#d1d5f0" stroke-width="2" stroke-dasharray="5 5"/>
  <path d="M300 250 Q250 280, 240 300" stroke="#d1d5f0" stroke-width="2" stroke-dasharray="5 5"/>
  <path d="M300 250 Q400 230, 450 180" stroke="#d1d5f0" stroke-width="2" stroke-dasharray="5 5"/>
  <path d="M300 250 Q200 230, 180 180" stroke="#d1d5f0" stroke-width="2" stroke-dasharray="5 5"/>
</svg>